<!DOCTYPE svg PUBLIC "-//W3C//DTD SVG 1.1//EN" "http://www.w3.org/Graphics/SVG/1.1/DTD/svg11.dtd">
<!-- Uploaded to: SVG Repo, www.svgrepo.com, Transformed by: SVG Repo Mixer Tools -->
<svg height="800px" width="800px" version="1.1" id="Layer_1" xmlns="http://www.w3.org/2000/svg" xmlns:xlink="http://www.w3.org/1999/xlink" viewBox="0 0 512 512" xml:space="preserve" fill="#000000">
<g id="SVGRepo_bgCarrier" stroke-width="0"/>
<g id="SVGRepo_tracerCarrier" stroke-linecap="round" stroke-linejoin="round"/>
<g id="SVGRepo_iconCarrier"> <path style="fill:#c084fc;" d="M511.979,192.779c-0.189,3.831-1.704,7.607-4.499,10.592 c-5.145,5.48-233.081,248.484-239.296,255.111c-3.297,3.519-7.74,5.268-12.184,5.268c-4.444,0-8.888-1.749-12.184-5.268 C238.67,453.002,10.735,209.997,4.52,203.371c-2.795-2.985-4.31-6.76-4.499-10.592c-0.189-3.842,0.936-7.752,3.419-10.992 c59.596-77.861,37.611-49.16,97.195-126.987c1.581-2.06,3.597-3.698,5.869-4.822c2.272-1.125,4.789-1.726,7.395-1.726H398.1 c2.606,0,5.123,0.601,7.395,1.726c2.272,1.125,4.288,2.762,5.869,4.822c59.584,77.827,37.599,49.127,97.195,126.987 C511.044,185.027,512.169,188.937,511.979,192.779z"/> <path style="fill:#9333ea;" d="M511.979,192.779c-0.189,3.831-1.704,7.607-4.499,10.592 c-5.145,5.48-233.081,248.484-239.296,255.111c-3.297,3.519-7.74,5.268-12.184,5.268V48.25H398.1c2.606,0,5.123,0.601,7.395,1.726 c2.272,1.125,4.288,2.762,5.869,4.822c59.585,77.827,37.599,49.127,97.195,126.987C511.044,185.027,512.169,188.937,511.979,192.779 z"/> <path style="fill:#d8b4fe;" d="M511.979,192.779c-0.189,3.831-1.704,7.607-4.499,10.592 c-5.145,5.48-233.081,248.484-239.296,255.111c-3.297,3.519-7.74,5.268-12.184,5.268c-4.444,0-8.888-1.749-12.184-5.268 C238.67,453.002,10.735,209.997,4.52,203.371c-2.795-2.985-4.31-6.76-4.499-10.592H511.979z"/> <path style="fill:#a855f7;" d="M511.979,192.779c-0.189,3.831-1.704,7.607-4.499,10.592 c-5.145,5.48-233.081,248.484-239.296,255.111c-3.297,3.519-7.74,5.268-12.184,5.268v-270.97H511.979z"/> <path style="fill:#d8b4fe;" d="M405.496,49.977c-2.272,6.27-49.338,136.543-51.599,142.802H158.103 c-2.272-6.27-49.338-136.543-51.599-142.802c2.294-1.136,4.822-1.726,7.395-1.726H398.1C400.673,48.25,403.19,48.841,405.496,49.977 z"/> <g> <path style="fill:#c084fc;" d="M405.496,49.977c-2.272,6.27-49.338,136.543-51.599,142.802H256V48.25H398.1 C400.673,48.25,403.19,48.841,405.496,49.977z"/> <polygon style="fill:#c084fc;" points="353.897,192.779 256,463.749 158.103,192.779 "/> </g> <polygon style="fill:#a855f7;" points="256,48.25 158.103,192.779 353.897,192.779 "/> </g>
</svg>