<svg fill="none" height="32" viewBox="0 0 32 32" width="32" xmlns="http://www.w3.org/2000/svg" xmlns:xlink="http://www.w3.org/1999/xlink"><clipPath id="a"><path d="m5 6h22v20h-22z"/></clipPath><path d="m16 0c8.8374 0 16 7.16407 16 16 0 8.8374-7.1626 16-16 16-8.83593 0-16-7.1634-16-16 0-8.83593 7.16407-16 16-16z" fill="#fff"/><g clip-path="url(#a)" fill="#0033ad"><path d="m11.0308 15.9278c-.0469.8023.5808 1.4891 1.3963 1.5353h.088c.8213 0 1.4842-.6522 1.4784-1.4603 0-.8081-.663-1.4603-1.4843-1.4545-.7861 0-1.4373.606-1.4784 1.3795z"/><path d="m5.50454 15.5526c-.264-.0173-.4928.1847-.50454.4445-.01173.2597.18774.4848.45174.4963.264.0174.48693-.1847.50453-.4444s-.18773-.4791-.45173-.4964z"/><path d="m10.9371 7.46602c.2346-.11544.3285-.40404.2112-.63492-.1174-.23088-.4107-.32323-.6454-.20779-.2346.11544-.3285.39827-.2112.62915.1174.23665.4048.33477.6454.21356z"/><path d="m12.4387 10.0461c.3637-.17894.5104-.61761.3285-.97548-.1819-.35786-.6277-.50216-.9915-.32323-.3637.17893-.5104.6176-.3285.97547.1819.35784.6277.50214.9915.32324z"/><path d="m7.38211 11.8181c.2816.179.65707.1039.8448-.1731.18187-.2771.1056-.6465-.176-.8312-.2816-.1789-.65706-.1039-.8448.1732-.18773.277-.1056.6522.176.8311z"/><path d="m8.27956 15.2929c-.41067-.0231-.7568.2828-.78027.6869-.02346.404.28747.7446.69814.7677.41066.023.7568-.2829.78026-.6869.02347-.3983-.28746-.7446-.69813-.7677z"/><path d="m7.46386 20.1818c-.2992.15-.4224.5079-.26987.808.15253.2944.51627.4156.82133.2656.2992-.1501.4224-.508.26987-.8081-.15253-.2944-.52213-.4156-.82133-.2655z"/><path d="m10.3386 13.7864c.4048.2597.9446.1501 1.2027-.2482.264-.3983.1525-.9293-.2523-1.1833-.4048-.2597-.9445-.15-1.2026.2482-.26403.3925-.15256.9236.2522 1.1833z"/><path d="m19.4617 9.98841c.3403.21939.8037.12699 1.0267-.20779.2229-.33477.129-.79076-.2112-1.0101-.3403-.21934-.8038-.12698-1.0267.20779-.2288.34055-.1349.79077.2112 1.0101z"/><path d="m20.9748 7.41986c.2229.1443.5162.08081.6629-.13853.1467-.21933.0821-.50793-.1408-.65223s-.5163-.08081-.6629.13275c-.1408.21934-.0763.51371.1408.65801z"/><path d="m19.5728 14.5367c-.8155-.0461-1.5195.5715-1.5606 1.3738-.0469.8023.5808 1.4949 1.3963 1.5353h.0821c.8155 0 1.4784-.6522 1.4784-1.4603.0059-.7677-.6101-1.4084-1.3962-1.4488z"/><path d="m12.9259 13.6825c.2522.4906.7626.8023 1.3258.8023.8155 0 1.4784-.6523 1.4784-1.4604 0-.2251-.0528-.4502-.1584-.658-.3696-.7215-1.2613-1.0101-1.9888-.6464-.7333.3694-1.0266 1.2467-.657 1.9625z"/><path d="m24.5357 11.8181c.2992-.1501.4165-.5137.264-.8081-.1525-.2943-.5221-.4098-.8213-.2597s-.4166.5079-.2699.8023c.1584.2944.5221.4156.8272.2655z"/><path d="m20.7811 12.2799c-.4283.2135-.6043.7272-.3872 1.1486s.7392.5945 1.1675.381c.4282-.2136.6042-.7273.3872-1.1487-.2171-.4213-.7392-.5887-1.1675-.3809z"/><path d="m15.9415 7.20052c.3344.01731.6219-.23666.6453-.56566.0235-.32901-.2405-.61183-.5749-.63492-.3344-.01732-.6219.23088-.6453.55988-.0176.33478.2405.61761.5749.6407z"/><path d="m15.9357 10.9696c.4811.0289.8917-.3347.9152-.808.0293-.47334-.3403-.87738-.8213-.90047-.4811-.02886-.8918.33477-.9152.80807-.0235.4733.3402.8774.8213.9004z"/><path d="m11.2186 19.72c.4283-.2136.6043-.7273.3872-1.1486-.2171-.4214-.7392-.5945-1.1675-.381-.4282.2136-.60425.7273-.3872 1.1486.2171.4214.7392.5946 1.1675.381z"/><path d="m16.4984 12.2222c-.4459.6753-.2581 1.5757.4283 2.0144s1.6016.254 2.0474-.4214c.4459-.6753.2582-1.5757-.4282-2.0144-.2406-.1558-.5222-.2367-.8096-.2367-.4987 0-.9622.2482-1.2379.6581z"/><path d="m19.0742 18.3174c-.3696-.7215-1.2614-1.0101-1.9888-.6465-.7334.3636-1.0267 1.241-.6571 1.9567.3696.7215 1.2613 1.0101 1.9888.6465.7275-.3579 1.0267-1.2237.6629-1.9452 0-.0058 0-.0058-.0058-.0115z"/><path d="m21.6611 18.2135c-.4048-.2597-.9445-.1501-1.2027.2482-.264.3983-.1525.9293.2523 1.1833.4048.2597.9445.1501 1.2027-.2482.264-.3925.1525-.9235-.2523-1.1833z"/><path d="m24.5006 16.0259c.0235-.404-.2874-.7446-.6981-.7677-.4107-.023-.7568.2829-.7803.6869-.0234.404.2875.7446.6982.7677.4048.0231.7568-.2886.7802-.6869z"/><path d="m26.548 15.5065c-.264-.0173-.4928.1847-.5045.4444-.0118.2598.1877.4849.4517.4964.264.0173.4869-.1847.5045-.4444.0118-.2598-.1877-.4791-.4517-.4964z"/><path d="m24.6181 20.1817c-.2816-.1789-.657-.1039-.8448.1732-.1818.2771-.1056.6465.176.8312.2816.1789.6571.1039.8448-.1732.1878-.2771.1056-.6522-.176-.8312z"/><path d="m11.0193 24.58c-.2229-.1443-.5162-.0808-.6629.1328-.1467.2193-.0821.5079.1349.6522.223.1443.5163.0808.663-.1327.1525-.2136.088-.508-.135-.6523z"/><path d="m21.063 24.5338c-.2347.1155-.3285.4041-.2112.635.1173.2308.4106.3232.6453.2078.2347-.1155.3285-.3983.2112-.6292-.1173-.2366-.4048-.3348-.6453-.2136 0 0 .0058 0 0 0z"/><path d="m15.5011 19.7777c.4459-.6753.2582-1.5758-.4282-2.0202-.6864-.4387-1.6016-.254-2.0534.4213-.4517.6754-.2581 1.5758.4283 2.0203.2405.1558.5221.2366.8096.2366.5045.0058.968-.2424 1.2437-.658z"/><path d="m12.5387 22.0115c-.3403-.2193-.8037-.127-1.0267.2078-.2229.3348-.129.7907.2112 1.0101.3403.2193.8038.127 1.0267-.2078.2288-.3348.1349-.7908-.2112-1.0101z"/><path d="m15.9939 24.7994c-.3343-.0173-.6218.2367-.6453.5657-.0234.329.2406.6118.575.6349.3343.0173.6218-.2309.6453-.5599.0176-.3348-.2406-.6176-.575-.6407z"/><path d="m16.0003 21.0303c-.481-.0289-.8917.3348-.9152.8081-.0293.4733.3403.8773.8214.9004.481.0231.8917-.3348.9152-.8081.0293-.4675-.3403-.8773-.8214-.9004z"/><path d="m19.5608 21.9538c-.3638.1847-.5104.6234-.3227.9812.1877.3579.6336.5022.9973.3175.3638-.179.5104-.6176.3286-.9755-.1878-.3579-.6336-.5079-1.0032-.3232z"/></g></svg>