<svg width="32" height="32" viewBox="0 0 32 32" fill="none" xmlns="http://www.w3.org/2000/svg">
<path d="M31.5211 19.8706C29.3839 28.442 20.7014 33.6585 12.128 31.521C3.55811 29.384 -1.65895 20.7021 0.479281 12.1312C2.61551 3.55876 11.2979 -1.65819 19.8688 0.478793C28.4418 2.61577 33.6583 11.2987 31.5211 19.8706Z" fill="#00B94F"/>
<path d="M20.8632 9.73898C20.0482 7.66155 17.9877 7.48144 15.5856 7.95456L14.7419 4.99013L12.926 5.51492L13.7476 8.4012C13.2702 8.53917 12.7849 8.68952 12.3028 8.83919L11.4762 5.93369L9.66128 6.45796L10.504 9.42174C10.1131 9.5433 9.72909 9.66211 9.35269 9.77112L9.34983 9.76199L6.845 10.4847L7.39393 12.4117C7.39393 12.4117 8.72768 11.9989 8.71238 12.0299C9.44798 11.8176 9.80812 12.1728 9.98196 12.5188L10.9432 15.8959C10.994 15.8815 11.0609 15.8645 11.1387 15.853C11.0783 15.8706 11.0134 15.8889 10.947 15.9087L12.2929 20.6399C12.3261 20.8792 12.2944 21.2853 11.7807 21.4346C11.8098 21.4483 10.4606 21.8156 10.4606 21.8156L10.7131 24.0748L13.0762 23.392C13.5161 23.2655 13.9509 23.1479 14.3765 23.0279L15.2305 26.0258L17.0445 25.5021L16.2002 22.5356C16.7012 22.4019 17.1843 22.2666 17.6548 22.1303L18.4943 25.0833L20.3102 24.5585L19.459 21.5655C22.4624 20.5095 24.3817 19.1279 23.8363 16.2025C23.3977 13.8467 22.0205 13.1369 20.1698 13.224C21.0711 12.3871 21.4622 11.2583 20.8632 9.73898ZM20.147 16.8838C20.7857 19.124 16.8523 19.9846 15.6219 20.3413L14.4919 16.3687C15.723 16.0133 19.4821 14.5468 20.147 16.8838ZM17.7075 11.5232C18.2871 13.5618 14.9995 14.2542 13.9744 14.5504L12.9492 10.9476C13.9743 10.6513 17.1022 9.39711 17.7075 11.5232Z" fill="white"/>
</svg>
