<svg width="1089" height="1089" viewBox="0 0 1089 1089" fill="none" xmlns="http://www.w3.org/2000/svg">
<g clip-path="url(#clip0_1188_4014)">
<circle cx="544.5" cy="544.5" r="430.5" fill="white"/>
<path d="M557.568 358.826H479.77V512.206H602.168V576.424H479.77V729.794H561.379C582.348 729.794 733.528 732.162 733.294 551.35C733.06 370.538 586.666 358.826 557.568 358.826Z" fill="#C2A633"/>
<path d="M544.5 0C243.778 0 0 243.778 0 544.5C0 845.222 243.778 1089 544.5 1089C845.222 1089 1089 845.222 1089 544.5C1089 243.778 845.222 0 544.5 0ZM565.893 838.584H368.703V576.429H299.192V512.211H368.697V250.04H537.939C577.976 250.04 843.164 241.725 843.164 549.232C843.164 861.824 565.899 838.584 565.899 838.584H565.893Z" fill="#C2A633"/>
</g>
<defs>
<clipPath id="clip0_1188_4014">
<rect width="1089" height="1089" fill="white"/>
</clipPath>
</defs>
</svg>
