<svg fill="none" height="512" viewBox="0 0 512 512" width="512" xmlns="http://www.w3.org/2000/svg"><path d="m255.957 507.599c138.978 0 251.642-112.664 251.642-251.642s-112.664-251.64206-251.642-251.64206-251.64206 112.66406-251.64206 251.64206 112.66406 251.642 251.64206 251.642z" fill="#fff"/><path clip-rule="evenodd" d="m255.957 8.62982c-136.595 0-247.3273 110.73218-247.3273 247.32718s110.7323 247.327 247.3273 247.327 247.327-110.732 247.327-247.327-110.732-247.32718-247.327-247.32718zm-255.957 247.32718c0-141.361 114.596-255.95687793 255.957-255.95687793s255.957 114.59587793 255.957 255.95687793-114.596 255.957-255.957 255.957-255.957-114.596-255.957-255.957z" fill="#231f20" fill-rule="evenodd"/><path d="m255.957 473.684c120.247 0 217.727-97.48 217.727-217.727 0-120.248-97.48-217.7275-217.727-217.7275-120.248 0-217.7275 97.4795-217.7275 217.7275 0 120.247 97.4795 217.727 217.7275 217.727z" fill="#009f55"/><path clip-rule="evenodd" d="m255.957 46.8592c-115.482 0-209.0977 93.6158-209.0977 209.0978 0 115.481 93.6157 209.097 209.0977 209.097 115.481 0 209.097-93.616 209.097-209.097 0-115.482-93.616-209.0978-209.097-209.0978zm-226.3571 209.0978c0-125.014 101.3431-226.3572 226.3571-226.3572 125.013 0 226.357 101.3432 226.357 226.3572 0 125.013-101.344 226.357-226.357 226.357-125.014 0-226.3571-101.344-226.3571-226.357z" fill="#231f20" fill-rule="evenodd"/><path d="m350.205 353.957c-2.339 1.637-5.555 2.748-9.649 3.333-3.86.585-6.666.468-8.421-.351-.468-.234-.936-1.052-1.403-2.456-.351-1.52-.819-2.573-1.404-3.158-.234-.234-.526-.409-.877-.526-4.678-2.573-9.707-4.795-15.087-6.666-12.632-4.679-25.673-7.544-39.123-8.597-6.9-16.491-10.643-25.497-11.228-27.017-4.093-10.409-5.38-16.374-3.859-17.894l131.928-131.928c.818-.819 3.333-.643 7.543.526 4.328 1.287 7.076 2.632 8.246 4.035 1.286 1.521 3.158 5.263 5.614 11.228 2.573 5.848 5.204 10.117 7.894 12.807 3.509 3.509 9.649 6.491 18.421 8.947 8.187 2.105 12.69 4.035 13.509 5.789 1.871 3.743 2.924 10.994 3.158 21.754.467 10.761-.176 17.486-1.93 20.176-.819 1.286-3.743 1.988-8.772 2.105-4.912.234-8.129-.41-9.649-1.93-1.287-1.286-2.047-2.398-2.281-3.333-.234-.936-.526-1.462-.877-1.579-5.146-3.275-10.175-6.082-15.087-8.421-11.579-5.731-21.345-8.713-29.298-8.947l-28.596 28.596c6.199 1.988 13.684 5.146 22.456 9.473 2.105 1.638 3.391 8.187 3.859 19.649.702 11.462 0 18.245-2.105 20.351-1.287 1.286-3.626 1.988-7.017 2.105-3.392.117-6.082-.351-8.07-1.404-1.17-1.169-3.334-3.099-6.492-5.789-5.263-3.626-16.841-7.719-34.736-12.28l-18.421 18.42c5.614 1.404 12.807 3.684 21.579 6.842 9.006 3.158 14.21 5.439 15.614 6.842 1.637 1.638 3.158 8.304 4.561 20 1.637 11.696 1.637 18.128 0 19.298z" fill="#fff"/><path clip-rule="evenodd" d="m393.356 162.524-130.501 130.502c.019.476.109 1.223.341 2.303.57 2.639 1.814 6.476 3.833 11.611l.006.015.006.015c.527 1.372 3.899 9.491 10.174 24.494 12.902 1.236 25.441 4.105 37.607 8.607 5.477 1.908 10.627 4.173 15.443 6.802.752.31 1.479.766 2.114 1.401 1.399 1.399 2.091 3.321 2.497 4.984.931.127 2.523.146 5.034-.234l.018-.003.018-.002c3.151-.45 5.425-1.208 7.014-2.111.089-.552.158-1.411.158-2.653 0-2.915-.376-7.214-1.186-12.998l-.006-.042-.005-.042c-.695-5.788-1.404-10.208-2.116-13.326-.356-1.564-.692-2.703-.988-3.483-.143-.376-.251-.596-.309-.707-.117-.082-.346-.231-.731-.446-.662-.369-1.59-.823-2.821-1.363-2.458-1.077-5.895-2.395-10.354-3.959l-.017-.006-.016-.006c-8.707-3.134-15.749-5.362-21.164-6.716l-7.393-1.848 25.546-25.546 2.38.606c9.017 2.299 16.521 4.499 22.477 6.605 5.883 2.079 10.529 4.16 13.641 6.304l.182.125.169.143c2.748 2.342 4.836 4.185 6.192 5.484 1.11.452 2.838.771 5.422.682 1.458-.051 2.499-.223 3.207-.435.521-.156.769-.306.862-.373.044-.078.158-.297.298-.741.233-.737.455-1.829.612-3.355.316-3.052.33-7.345-.014-12.976l-.003-.044-.002-.044c-.23-5.643-.657-9.894-1.238-12.853-.292-1.482-.597-2.509-.871-3.171-.055-.133-.104-.24-.145-.323-8.316-4.071-15.328-7.001-21.068-8.843l-6.733-2.159 34.913-34.913 1.861.055c8.836.26 19.238 3.533 31.055 9.378 5.005 2.385 10.1 5.226 15.286 8.514 1.21.633 1.867 1.628 2.172 2.176.387.697.626 1.434.786 2.058.019.036.062.113.143.232.186.272.504.661 1.011 1.17.002-.002.316.248 1.362.457 1.136.227 2.785.336 5.045.228l.052-.003.053-.001c2.383-.055 4.025-.248 5.058-.496.172-.041.312-.081.424-.115.28-.714.653-2.144.893-4.653.295-3.082.346-7.232.116-12.515l-.002-.047-.001-.047c-.115-5.277-.429-9.591-.921-12.982-.465-3.199-1.055-5.335-1.64-6.636-.014-.01-.028-.02-.044-.031-.34-.235-.949-.575-1.93-.996-1.955-.837-4.883-1.782-8.892-2.813l-.045-.011-.044-.013c-8.98-2.514-16-5.742-20.309-10.051-3.24-3.24-6.13-8.07-8.793-14.12l-.02-.047-.02-.048c-1.207-2.931-2.244-5.252-3.115-6.994-.912-1.823-1.513-2.747-1.803-3.09l-.01-.012-.009-.011c-.001 0-.088-.098-.338-.273-.263-.184-.647-.414-1.184-.677-1.078-.527-2.59-1.102-4.603-1.702-1.918-.531-3.244-.779-4.077-.846zm55.396 41.863s-.008-.007-.021-.02c.015.013.022.02.021.02zm1.752 36.616c0 .001-.001.001-.001.001.008-.005.009-.005.001-.001zm-103.682 110.487c-.002-.003.008-.034.031-.086-.018.062-.03.088-.031.086zm-83.95-58.969c.001.001-.001.025-.011.068.005-.048.01-.07.011-.068zm131.01-138.611c1.682.117 3.685.541 5.898 1.156l.038.01.037.011c2.296.683 4.31 1.42 5.974 2.234 1.595.78 3.195 1.787 4.345 3.161.993 1.177 1.968 2.881 2.925 4.794.995 1.99 2.115 4.506 3.356 7.519 2.476 5.619 4.841 9.313 6.976 11.447 2.704 2.704 7.951 5.436 16.489 7.831 4.157 1.07 7.559 2.139 10.097 3.227 1.271.545 2.453 1.147 3.443 1.833.906.627 2.047 1.591 2.729 3.008 1.229 2.476 2.035 5.742 2.583 9.514.559 3.849.887 8.525 1.008 13.988.235 5.457.198 10.033-.15 13.665-.329 3.443-.985 6.706-2.468 8.991-1.378 2.144-3.801 2.957-5.425 3.347-1.879.45-4.195.667-6.819.73-2.632.123-5.029.025-7.095-.388-2.035-.407-4.156-1.201-5.758-2.803-1.319-1.319-2.667-2.958-3.28-4.865-4.714-2.958-9.304-5.497-13.769-7.623l-.03-.014-.029-.015c-10.383-5.139-18.91-7.825-25.699-8.397l-22.41 22.41c4.94 1.924 10.442 4.387 16.494 7.373l.393.194.347.269c1.386 1.079 2.22 2.595 2.762 3.904.574 1.384 1.014 3.019 1.367 4.811.703 3.582 1.153 8.322 1.391 14.121.354 5.811.367 10.625-.018 14.347-.193 1.866-.498 3.581-.967 5.066-.453 1.435-1.162 2.991-2.379 4.208-2.498 2.498-6.276 3.241-9.92 3.366-3.791.131-7.327-.361-10.237-1.902l-.574-.304-.458-.459c-1.014-1.014-3-2.793-6.061-5.404-2.177-1.458-5.902-3.196-11.449-5.157-5.113-1.808-11.557-3.731-19.358-5.766l-11.459 11.458c4.334 1.315 9.254 2.966 14.753 4.946 4.539 1.591 8.202 2.99 10.945 4.192 1.371.601 2.57 1.178 3.56 1.73.92.512 1.932 1.151 2.715 1.934 1.076 1.076 1.739 2.509 2.188 3.689.493 1.296.932 2.861 1.336 4.631.807 3.539 1.558 8.287 2.265 14.175.824 5.892 1.264 10.643 1.264 14.152 0 1.743-.107 3.367-.404 4.746-.247 1.148-.831 3.182-2.631 4.467l-.017.012-.016.012c-3.083 2.157-7.018 3.426-11.496 4.067-3.99.603-7.894.681-10.873-.71l-.053-.024-.052-.026c-1.394-.697-2.157-1.875-2.519-2.508-.431-.754-.769-1.606-1.049-2.443l-.064-.195-.047-.2c-.095-.415-.189-.72-.267-.935-4.421-2.423-9.19-4.528-14.314-6.31l-.041-.014-.04-.015c-12.257-4.54-24.907-7.32-37.96-8.341l-2.627-.206-1.017-2.43c-6.855-16.383-10.635-25.475-11.268-27.118-2.072-5.268-3.516-9.613-4.232-12.936-.356-1.648-.579-3.249-.534-4.685.04-1.285.316-3.33 1.876-4.889l131.928-131.928c1.037-1.037 2.276-1.442 3.165-1.614.916-.176 1.846-.181 2.686-.122z" fill="#231f20" fill-rule="evenodd"/><path d="m165.451 354.206c2.349 1.644 5.579 2.759 9.689 3.347 3.875.587 6.694.469 8.455-.353.47-.235.94-1.057 1.409-2.466.353-1.527.823-2.584 1.41-3.171.235-.235.528-.411.88-.528 4.698-2.584 9.748-4.815 15.15-6.694 12.683-4.697 25.777-7.575 39.282-8.632 6.929-16.558 10.687-25.601 11.274-27.127 4.11-10.452 5.402-16.441 3.875-17.968l-132.467-132.467c-.822-.823-3.347-.646-7.575.528-4.345 1.292-7.105 2.642-8.279 4.052-1.292 1.526-3.171 5.284-5.637 11.273-2.584 5.872-5.226 10.159-7.9271 12.86-3.523 3.523-9.6884 6.517-18.4961 8.983-8.2205 2.114-12.7418 4.052-13.5639 5.814-1.8789 3.757-2.9358 11.038-3.1707 21.843-.4698 10.804.1761 17.556 1.9377 20.257.822 1.292 3.7579 1.997 8.8077 2.114 4.9323.235 8.1618-.411 9.6884-1.938 1.2918-1.291 2.0551-2.407 2.29-3.347.2349-.939.5285-1.467.8808-1.585 5.1672-3.288 10.2169-6.107 15.1492-8.455 11.626-5.755 21.432-8.749 29.418-8.984l28.713 28.713c-6.224 1.996-13.74 5.167-22.548 9.512-2.114 1.644-3.406 8.221-3.875 19.729-.705 11.509 0 18.32 2.114 20.434 1.291 1.292 3.64 1.997 7.046 2.114 3.405.118 6.106-.352 8.103-1.409 1.174-1.174 3.347-3.112 6.517-5.813 5.285-3.641 16.911-7.751 34.879-12.331l18.496 18.496c-5.637 1.409-12.859 3.699-21.667 6.87-9.042 3.171-14.268 5.461-15.678 6.87-1.644 1.644-3.17 8.338-4.58 20.082-1.644 11.743-1.644 18.202 0 19.377z" fill="#fff"/><path clip-rule="evenodd" d="m124.293 153.463c.892.172 2.137.579 3.178 1.62l132.468 132.468c1.566 1.565 1.843 3.619 1.883 4.91.045 1.441-.179 3.048-.536 4.703-.719 3.337-2.169 7.7-4.249 12.99-.637 1.651-4.432 10.78-11.314 27.228l-1.022 2.44-2.637.207c-13.107 1.026-25.808 3.817-38.116 8.375l-.04.015-.041.014c-5.144 1.789-9.933 3.903-14.372 6.336-.079.216-.173.522-.269.939l-.046.201-.065.195c-.281.841-.621 1.696-1.053 2.453-.364.636-1.13 1.819-2.529 2.518l-.053.027-.053.024c-2.991 1.396-6.911 1.318-10.919.713-4.495-.644-8.446-1.918-11.541-4.084l-.017-.012-.017-.012c-1.807-1.29-2.394-3.333-2.642-4.485-.298-1.384-.405-3.015-.405-4.765 0-3.524.442-8.294 1.269-14.211.71-5.912 1.464-10.679 2.274-14.233.406-1.777.847-3.348 1.342-4.65.45-1.184 1.117-2.623 2.197-3.703.786-.787 1.803-1.428 2.726-1.943.994-.554 2.198-1.133 3.575-1.736 2.754-1.207 6.432-2.612 10.989-4.21 5.521-1.988 10.462-3.645 14.813-4.966l-11.505-11.505c-7.833 2.044-14.304 3.975-19.437 5.789-5.57 1.97-9.31 3.715-11.497 5.179-3.073 2.621-5.067 4.408-6.085 5.426l-.46.461-.576.305c-2.922 1.547-6.473 2.041-10.28 1.91-3.658-.126-7.451-.872-9.96-3.38-1.222-1.222-1.934-2.785-2.389-4.225-.471-1.491-.777-3.213-.971-5.087-.386-3.738-.373-8.572-.017-14.406.239-5.823.69-10.582 1.397-14.178.353-1.8.795-3.441 1.371-4.831.545-1.314 1.382-2.837 2.774-3.92l.348-.27.395-.195c6.077-2.998 11.601-5.471 16.562-7.403l-22.502-22.502c-6.817.575-15.379 3.272-25.804 8.432l-.03.014-.029.014c-4.484 2.135-9.0924 4.685-13.8256 7.655-.6155 1.915-1.9694 3.56-3.2938 4.885-1.6086 1.608-3.7383 2.406-5.781 2.814-2.0746.415-4.4822.513-7.1243.39-2.6347-.063-4.9608-.281-6.8471-.734-1.631-.391-4.0632-1.207-5.4473-3.36-1.4885-2.294-2.1477-5.57-2.4784-9.027-.3488-3.647-.3866-8.243-.1498-13.722.1206-5.485.4507-10.18 1.0118-14.045.5499-3.788 1.36-7.067 2.5942-9.554.6844-1.422 1.8297-2.389 2.7393-3.019.9945-.688 2.1809-1.293 3.4568-1.84 2.5491-1.093 5.9644-2.166 10.1384-3.241 8.5732-2.405 13.842-5.148 16.5572-7.863 2.1428-2.143 4.5178-5.852 7.0044-11.494 1.2462-3.025 2.3702-5.551 3.3702-7.55.96-1.92 1.939-3.631 2.936-4.813 1.155-1.38 2.762-2.39 4.363-3.174 1.671-.817 3.693-1.558 5.998-2.243l.038-.011.037-.01c2.223-.618 4.234-1.043 5.923-1.161.844-.059 1.777-.054 2.697.123zm-6.263 9.376c-2.021.602-3.539 1.18-4.621 1.709-.54.264-.925.494-1.189.679-.251.177-.339.275-.339.275l-.009.011-.011.012c-.291.345-.895 1.272-1.81 3.103-.875 1.748-1.916 4.079-3.128 7.022l-.02.048-.021.047c-2.673 6.076-5.575 10.925-8.8285 14.178-4.3264 4.327-11.3751 7.568-20.3915 10.092l-.0445.013-.0447.011c-4.0258 1.036-6.9658 1.984-8.9287 2.825-.9847.422-1.5966.764-1.9379 1-.0156.011-.0302.022-.0439.031-.5876 1.307-1.1805 3.451-1.6467 6.663-.4943 3.405-.8097 7.737-.9249 13.036l-.0011.047-.002.047c-.2306 5.304-.1796 9.471.1165 12.566.241 2.52.6157 3.955.897 4.672.1118.035.2523.074.4253.116 1.0372.249 2.6855.442 5.0789.498l.0527.001.0526.002c2.2696.109 3.9245 0 5.0656-.229 1.0448-.209 1.3623-.458 1.3675-.458.5094-.511.8284-.902 1.015-1.175.0819-.119.1246-.196.1433-.233.1613-.627.4011-1.366.7901-2.067.3056-.55.9653-1.549 2.18-2.184 5.2077-3.302 10.324-6.155 15.3488-8.549 11.8651-5.87 22.3111-9.156 31.1821-9.417l1.869-.055 35.056 35.056-6.761 2.168c-5.764 1.849-12.804 4.792-21.154 8.879-.041.084-.09.191-.146.324-.275.665-.582 1.696-.874 3.185-.583 2.971-1.012 7.239-1.243 12.905l-.002.044-.003.044c-.346 5.654-.332 9.965-.015 13.03.159 1.532.381 2.628.615 3.368.14.446.255.666.299.744.094.067.343.218.866.375.71.213 1.756.386 3.22.436 2.595.09 4.33-.23 5.444-.684 1.361-1.305 3.458-3.155 6.218-5.506l.169-.144.183-.126c3.124-2.153 7.79-4.242 13.696-6.33 5.981-2.114 13.516-4.323 22.57-6.631l2.39-.609 25.65 25.65-7.423 1.856c-5.438 1.36-12.508 3.596-21.25 6.744l-.017.006-.017.006c-4.477 1.57-7.928 2.893-10.396 3.975-1.236.542-2.168.997-2.833 1.368-.387.216-.616.366-.734.448-.059.111-.167.333-.31.71-.298.783-.635 1.927-.993 3.497-.714 3.131-1.426 7.569-2.124 13.381l-.005.042-.006.042c-.813 5.808-1.191 10.124-1.191 13.052 0 1.247.07 2.109.159 2.663 1.595.907 3.878 1.668 7.043 2.12l.018.002.018.003c2.521.382 4.12.363 5.055.234.407-1.669 1.102-3.599 2.506-5.003.638-.638 1.368-1.096 2.123-1.408 4.836-2.639 10.007-4.914 15.506-6.829 12.216-4.52 24.806-7.402 37.761-8.642 6.301-15.065 9.686-23.217 10.216-24.594l.006-.016.006-.015c2.027-5.155 3.277-9.008 3.848-11.658.234-1.084.324-1.834.343-2.313l-131.035-131.035c-.837.067-2.168.316-4.094.849zm135.112 129.679c.001-.001.006.02.011.068-.01-.043-.012-.067-.011-.068zm-84.293 59.21c-.002.003-.013-.023-.032-.086.024.052.033.084.032.086zm-102.348-147.705c-.0005 0 .006-.006.021-.019-.0131.013-.0205.019-.021.019z" fill="#231f20" fill-rule="evenodd"/></svg>