<svg width="32" height="32" viewBox="0 0 32 32" fill="none" xmlns="http://www.w3.org/2000/svg">
<path d="M31.5211 19.8706C29.3839 28.442 20.7014 33.6585 12.128 31.521C3.55811 29.384 -1.65895 20.7021 0.479281 12.1312C2.61551 3.55876 11.2979 -1.65819 19.8688 0.478793C28.4418 2.61577 33.6583 11.2987 31.5211 19.8706Z" fill="#0190FB"/>
<path d="M21.92 8.95415C21.7231 9.44754 21.5226 9.94092 21.3038 10.4268C21.1106 10.8604 20.8626 10.9875 20.3996 10.8791C19.8125 10.7408 19.2365 10.5577 18.6494 10.4343C17.5155 10.1914 16.3779 10.1689 15.2585 10.5315C13.8547 10.9838 13.1073 12.0266 12.6479 13.3722H16.4544C16.7534 13.3722 16.9941 13.6189 16.9941 13.9254V15.1551C16.9941 15.4616 16.7534 15.7083 16.4544 15.7083H12.2833C12.2833 16.0522 12.2796 16.3811 12.2833 16.7101H16.4544C16.7534 16.7101 16.9941 16.9567 16.9941 17.2632V18.493C16.9941 18.7995 16.7534 19.0462 16.4544 19.0462H12.8083C12.8083 19.0611 12.8083 19.0761 12.8156 19.0835C13.2531 20.104 13.8912 20.9225 14.9377 21.3486C16.1555 21.842 17.3988 21.8308 18.6531 21.5654C19.2474 21.4421 19.8308 21.2552 20.4251 21.1169C20.859 21.016 21.1106 21.1468 21.2965 21.5617C21.5116 22.0401 21.7085 22.526 21.9054 23.0157C22.0914 23.4754 21.982 23.8006 21.559 24.0548C21.4533 24.1183 21.3439 24.1707 21.2309 24.2155C19.4735 24.9182 17.6613 25.1799 15.7909 24.8734C14.4746 24.6566 13.2458 24.1931 12.1848 23.3484C10.8467 22.2868 9.9789 20.8852 9.47573 19.2368L9.41375 19.0462H7.53963C7.24065 19.0462 7 18.7995 7 18.493V17.2632C7 16.9567 7.24065 16.7101 7.53963 16.7101H9.01632C9.01632 16.3737 9.01632 16.0485 9.01632 15.7083H7.53963C7.24065 15.7083 7 15.4616 7 15.1551V13.9254C7 13.6189 7.24065 13.3722 7.53963 13.3722H9.31895C9.45385 12.9237 9.56688 12.4677 9.73825 12.0378C10.6389 9.8101 12.1484 8.22528 14.4199 7.47025C16.2977 6.84604 18.19 6.86473 20.0824 7.39923C20.5746 7.53753 21.0632 7.71694 21.5299 7.93747C21.982 8.15053 22.0987 8.50935 21.92 8.95415Z" fill="white"/>
</svg>
