<svg width="220" height="220" viewBox="0 0 220 220" fill="none" xmlns="http://www.w3.org/2000/svg">
<path d="M46.9258 30.9198L10.6498 89.237C9.10516 91.7202 9.50952 94.9457 11.6194 96.9707L106.3 187.845C108.712 190.16 112.527 190.141 114.916 187.801L207.731 96.8898C209.765 94.8972 210.177 91.7736 208.729 89.3217L174.312 31.0417C173.199 29.1567 171.172 28 168.983 28H52.1808C50.0423 28 48.0554 29.104 46.9258 30.9198Z" fill="#009292"/>
<path d="M143.827 80.3594V73.1406H172.508V80.3594H162.583V106.141H153.752V80.3594H143.827Z" fill="white"/>
<path d="M113.512 106.141V73.1406H127.756C130.206 73.1406 132.349 73.5864 134.186 74.478C136.022 75.3696 137.451 76.6533 138.472 78.3291C139.492 80.0049 140.002 82.0137 140.002 84.3555C140.002 86.7188 139.476 88.7114 138.423 90.3335C137.381 91.9556 135.915 93.1802 134.024 94.0073C132.145 94.8345 129.948 95.248 127.434 95.248H118.926V88.2871H125.629C126.682 88.2871 127.579 88.1582 128.32 87.9004C129.072 87.6318 129.647 87.2075 130.044 86.6274C130.453 86.0474 130.657 85.29 130.657 84.3555C130.657 83.4102 130.453 82.6421 130.044 82.0513C129.647 81.4497 129.072 81.0093 128.32 80.73C127.579 80.4399 126.682 80.2949 125.629 80.2949H122.471V106.141H113.512ZM132.848 90.9941L141.098 106.141H131.366L123.309 90.9941H132.848Z" fill="white"/>
<path d="M99.3877 73.1406H108.347V94.2812C108.347 96.7949 107.745 98.9702 106.542 100.807C105.35 102.633 103.685 104.046 101.547 105.045C99.4092 106.033 96.9277 106.527 94.1025 106.527C91.2559 106.527 88.7637 106.033 86.626 105.045C84.4883 104.046 82.8232 102.633 81.6309 100.807C80.4492 98.9702 79.8584 96.7949 79.8584 94.2812V73.1406H88.8174V93.5078C88.8174 94.5283 89.043 95.4414 89.4941 96.2471C89.9453 97.042 90.5684 97.665 91.3633 98.1162C92.1689 98.5674 93.082 98.793 94.1025 98.793C95.1338 98.793 96.0469 98.5674 96.8418 98.1162C97.6367 97.665 98.2598 97.042 98.7109 96.2471C99.1621 95.4414 99.3877 94.5283 99.3877 93.5078V73.1406Z" fill="white"/>
<path d="M50.7246 106.141V73.1406H74.5078V80.3594H59.6836V86.0312H73.2832V93.25H59.6836V98.9219H74.4434V106.141H50.7246Z" fill="white"/>
<path d="M147.598 88.1818V92L167.598 89.8182V86L147.598 88.1818Z" fill="white"/>
<path d="M147.598 95.1818V99L167.598 96.8182V93L147.598 95.1818Z" fill="white"/>
</svg>
