<svg width="209" height="198" viewBox="0 0 209 198" fill="none" xmlns="http://www.w3.org/2000/svg">
<path d="M173.784 28.9203C155.227 10.4029 130.058 -1.95112e-07 103.814 0C77.5695 1.95112e-07 52.4004 10.4029 33.8431 28.9203C15.2857 47.4377 4.86035 72.5526 4.86035 98.7401C4.86035 124.928 15.2857 150.043 33.8431 168.56C52.4004 187.077 77.5695 197.48 103.814 197.48C130.058 197.48 155.227 187.077 173.784 168.56C192.341 150.043 202.767 124.928 202.767 98.7401C202.767 72.5526 192.341 47.4377 173.784 28.9203ZM195.302 85.1277L195.375 85.7069L195.705 85.6609L196.49 86.3191L197.809 87.5763L199.128 88.7019L198.33 89.9065L197.525 90.3475L196.351 89.1166L195.903 88.4255L194.992 87.55L193.957 86.4837L193.297 87.5566L192.908 88.2148L192.518 88.9455L192.123 90.1237V90.4858L190.144 90.7556L189.563 90.0579L188.904 89.3997L187.987 88.5703L186.806 87.4513L185.803 88.8665L185.407 89.1166L185.645 89.3799L184.695 91.0124L184.101 92.0853L182.953 91.5719L182.155 90.6306L183.376 89.1693L183.89 88.2214L184.431 87.6356L184.715 87.0102L185.467 85.7859L185.658 85.3581L187.353 85.1474L188.231 85.9636V86.4837L188.6 86.3718L189.405 87.1551L189.867 87.5895L190.665 88.5308L191.72 86.6614V86.3652L192.631 84.7591L192.769 84.4036L194.306 84.2127L195.302 85.1277ZM184.985 65.0118L186.509 64.5707L187.169 64.6234L187.274 64.2219L187.71 63.9717L189.411 63.3859L189.596 63.3135L188.725 62.9581L188.6 62.8922L186.892 62.3656L186.845 61.7798L187.274 60.9109L187.828 60.4962L190.137 61.6482L192.208 62.3525L192.868 63.8072L191.641 66.3019L191.199 67.4209L191.067 67.8093L190.843 68.3359L190.032 68.1318L188.937 67.5789L189.517 66.5521L189.84 66.4467L189.735 66.1242L190.045 65.6371L190.342 65.0579L189.992 65.1961L188.871 65.5976L187.828 66.0189L186.674 66.5784L185.064 67.2366L183.963 67.625L179.741 69.343L179.319 69.1982L178.91 69.7511L177.808 70.3172L177.26 69.8104L176.997 69.0929L176.772 68.1187L178.356 67.5328L180.018 67.0326L180.427 67.1379L180.348 66.8812L183.178 65.7951L184.985 65.0118ZM168.329 49.9248L171.099 47.8645L171.627 47.8975L171.462 47.6012L173.078 46.4493L173.256 46.3111L173.223 46.2255L173.091 44.2508L172.893 43.6452L172.808 42.7895L173.368 42.5723L174.153 42.4933H174.727L175.004 42.9014L174.971 43.79L175.018 44.9814L175.222 44.8037L178.804 42.1313L179.094 41.8877L179.866 41.1505L180.598 41.8087L181.291 43.0001L180.381 43.6189H179.958L179.589 44.0599L177.129 45.824L176.192 46.4822L175.209 47.2655L175.341 48.3451L175.493 49.1547L175.361 49.3917L175.565 49.5167L175.69 50.5107L173.949 50.8793L173.56 50.5041V49.4509H173.527V48.5228L169.509 51.5507L168.889 52.1497L168.144 52.6434L167.379 52.0378L167.168 51.6363L166.646 50.9056L168.329 49.9248ZM149.594 33.3108L150.34 32.8369L150.511 32.2839L150.788 31.9351L151.144 31.4743L155.056 26.6955L155.571 26.6165L155.445 26.1952L156.705 24.622L157.332 23.7136L157.952 22.8052L158.289 22.667L158.341 22.5683V22.2128L158.46 22.0219L159.225 21.0148L160.03 21.5612L160.756 21.9824L160.294 24.2073L159.931 26.7152V26.7481L160.591 26.5243L161.963 25.9385L162.299 26.057L162.392 25.6423L164.503 24.826L165.274 25.6752L165.584 26.261L163.414 28.7755L162.88 29.0191V29.4074L158.566 35.1934L157.602 36.24L156.943 37.3063L156.534 37.8987L155.769 39.0968L154.245 38.0238L154.027 37.4248L154.568 36.6283L155.624 35.5488L157.101 33.6597L157.563 33.5017L157.504 33.1791L158.071 32.3103L161.204 28.5583L161.646 27.8474L161.264 28.0054L160.657 28.1633L160.545 28.3082L159.984 28.5583L159.238 28.9993L158.506 28.6241L158.038 28.2357L158.262 27.0707L158.302 26.8798L158.401 26.498L158.599 25.4843L157.635 26.6428L155.729 29.0849L155.373 29.2889L153.532 31.9219L151.553 34.5549L150.96 35.3119L149.264 34.0546L149.594 33.3108ZM130.464 22.0285L130.688 21.6336L131.275 20.1525L131.994 18.4608L132.285 17.7302L132.647 17.1246L133.096 15.6896L135.075 10.8055L135.339 9.82469L135.688 8.83074L136.935 9.22569L137.595 9.46266L138.004 11.1148L138.413 13.0896L138.683 17.0983L138.545 17.3879L138.855 18.1317L138.05 22.3511L137.16 25.2012L137.021 25.4382L136.797 26.6889L134.989 26.2413L134.534 25.8727L135.616 23.1409L135.959 22.2128L136.79 19.3824V17.5854V16.6178L136.744 15.5185L136.909 15.2223L136.685 14.8866L136.355 12.7802L135.979 13.8597L135.088 15.6106L134.158 17.8421L133.076 20.9358L132.931 21.3571L132.614 21.6204L132.76 21.989L132.384 22.9237L131.724 24.859L130.161 24.4114L129.547 23.9506L130.464 22.0285ZM107.112 17.6512L107.151 17.2036L107.204 16.6243L107.897 10.4961L108.286 10.1472L107.95 9.87077L108.154 7.86313V6.75728V5.65801L108.365 5.3618L108.431 5.26965L108.26 4.96028V4.71673L108.352 3.46606H109.322H110.16L110.984 5.58561L112.04 7.88946L112.468 7.34311L113.306 6.1122L113.649 6.02663L113.504 5.63168L114.823 3.79519L115.905 4.09139L116.486 4.41393L116.031 7.70515L115.714 8.19883L115.912 8.52795L115.437 15.7686L115.213 17.118L115.259 18.3621V19.0796V20.5014L113.392 20.4224L112.884 20.0406V19.073L113.174 17.6117L113.392 15.2223L113.695 14.8471L113.471 14.6035V13.5833L114.065 8.73201V7.89604L113.827 8.23833L113.405 8.69251V8.91632L113.062 9.42316L112.679 10.1999L111.855 10.2855L111.255 10.2065L110.813 9.11379L110.74 8.9229L110.615 8.55428L110.225 7.59325L110.047 9.08746L109.751 12.2141L109.559 12.5827L109.427 15.7686L109.177 19.0598L109.091 20.0143L106.98 19.8695L106.881 19.0072L107.244 18.2041L107.112 17.6512ZM85.1451 8.33706L85.719 8.23174L85.6596 7.89604L86.2467 7.0864L87.4275 5.68434L88.4764 4.28887L89.7297 5.01952L90.2113 5.79624L89.0437 7.03374L88.384 7.52084L87.6122 8.52795L86.6029 9.62064L87.7112 10.1933L88.3708 10.5488L89.1163 10.891L90.3168 11.2202H90.6863L91.0623 13.1949L90.4026 13.8531L89.7429 14.5575L88.9579 15.5251L87.9025 16.7626L89.4131 17.6512L89.6902 18.033L89.9408 17.7828L91.623 18.6386L92.7246 19.1717L92.276 20.3434L91.3789 21.1925L89.8485 20.0538L88.8788 19.593L88.2587 19.0927L87.599 18.8426L86.3325 18.1844L85.8905 18.0132L85.5871 16.3413L86.3589 15.4263H86.88L86.7415 15.0643L87.4803 14.2218L87.8959 13.7347L88.793 12.8921L86.8998 11.8521H86.6029L84.9406 11.0359L84.5778 10.924L84.3007 9.39683L85.1451 8.33706ZM64.6955 11.7007L66.0412 11.1938L66.6085 12.7341L66.7339 13.2936L67.8751 15.999L68.2841 17.0719L68.7195 17.8355L68.9899 18.3292V18.836L69.2736 18.8821L71.8199 24.5496L71.998 24.8392L72.2091 25.2078L72.5323 25.978L71.7539 26.6362L71.3185 26.8074L70.362 27.2089L69.8343 25.2342L69.9003 24.7141L69.5111 24.5233L69.1812 23.786L67.4595 19.9616L67.2418 19.3034L66.7933 18.1515L66.4238 17.7039L64.524 13.6293V13.1686H64.2931L63.7324 12.1944L64.6955 11.7007ZM82.1238 26.182L54.418 156.172C44.0761 147.318 36.315 135.849 31.95 122.968C27.5851 110.088 26.7775 96.2722 29.6122 82.9727C32.4468 69.6732 38.819 57.3811 48.0592 47.388C57.2994 37.3948 69.0664 30.0696 82.1238 26.182ZM41.1192 26.7218L41.6931 26.1096L43.771 27.0575L46.1326 27.9724L46.06 27.2813L45.7962 25.82L45.9875 25.5238L45.6115 25.3395L45.2816 23.0883L46.2645 22.5551L46.9242 22.3774L48.9032 25.0564L49.0153 25.6225L49.3913 25.7278L54.0947 31.2176L54.8995 32.3827L55.7967 33.245L56.2914 33.7716L57.2875 34.7853L55.8956 36.0228L55.236 36.1017L54.5763 35.3974L53.7649 34.1533L52.2477 32.2905L52.2015 31.8034H51.8651L51.146 31.0596L48.1776 27.1628L47.5839 26.577L47.6564 26.9851V27.6038L47.795 27.7816L47.9137 28.3806L48.1776 29.2034L47.6498 29.8616L47.1617 30.2236L46.0798 29.7497L45.9215 29.6246L45.5719 29.4469L44.6286 29.0322L45.5389 30.2236L47.5179 32.6262L47.6366 33.0212L49.7673 35.3908L51.8849 37.9251L52.4983 38.6689L50.9086 40.0578L50.2489 39.5049L49.9455 38.6821L49.4507 38.3924L49.1671 38.0436L48.7976 37.5894L45.0046 32.7184L45.0442 32.1984L44.6088 32.2313L43.3554 30.6515L42.6034 29.8419L41.8448 29.0322L41.8052 28.6702L41.7195 28.5978L41.3764 28.499L41.2181 28.3411L40.4067 27.38L41.1192 26.7218ZM24.898 44.9288L25.3136 44.4285L26.125 45.0209L27.3982 45.9161L27.5829 46.1531L27.9721 46.423L27.5961 44.6523L27.8006 44.2837L27.4377 43.6715L27.0551 41.9469L28.2425 41.631H29.0539L29.2122 43.3885L29.3112 44.0467L29.6344 46.2387L29.8059 47.7856L29.8983 47.8448L30.0962 48.0357L31.4749 48.9243L31.2506 47.3972L31.3495 46.6665L31.1253 46.4032L30.8746 45.0868L30.7097 44.231L32.6887 44.0731L32.847 45.9096L32.9195 46.5086L33.0911 48.7663L33.2296 49.1942L33.3087 50.175L34.8524 51.294L35.7825 51.8864L37.3987 52.7487L38.7576 53.6702L38.0979 54.9867L37.3723 55.645L36.0529 54.6181L35.6176 54.0652L35.2086 53.7821L34.7666 53.5518L32.7216 52.0905L32.2203 51.7087L32.1609 51.3993L31.4287 51.2677L29.9313 50.2671L27.4509 48.5294L27.2926 47.9567L26.5274 47.8843L25.5775 47.3577L24.9178 46.9693L24.0207 46.3638L24.898 44.9288ZM14.4886 64.7221L15.0954 63.4057L16.5863 64.0639L17.0678 64.3667L19.7922 65.4791L20.8411 65.9531L21.6921 66.1834L22.233 66.3414L22.5958 66.6969L22.8333 66.5257L28.6449 68.7506L28.9748 68.8296L29.3903 68.9415L30.1622 69.2574L30.0962 70.2909L29.9115 70.7253L29.5157 71.6798L27.761 70.6727L27.4377 70.258L26.9892 70.3765L26.2306 70.0868L22.3056 68.5794L21.6459 68.2701L20.5509 67.8027L19.9704 67.7501L15.7485 66.2098L15.4385 65.8938L15.2604 66.0452L14.1719 65.749L14.4886 64.7221ZM8.94078 86.5034L10.8406 85.2725L12.78 83.5281L13.4001 83.8112L14.0268 84.5682L14.1851 85.154L12.747 86.0755L12.6415 86.2006L11.9357 86.7667H12.1402L13.8883 86.8983L14.2841 87.0168L14.482 87.3789L15.102 87.1616L16.6786 87.2077L18.6114 87.4973L21.6327 87.833V88.1029L21.9955 87.9055L23.7304 87.9647L25.4126 88.1358V89.1298L25.3136 89.9197L24.9178 90.5779L23.704 90.308L23.1697 89.8802L22.8003 90.1303L18.2948 89.5247L17.1338 89.4194L15.4187 89.2022L14.1587 88.9521L13.0439 88.8138L11.8565 88.7085L11.5201 88.6624L9.42894 88.5308L8.82205 88.386L8.94078 86.5034ZM13.3803 113.741L12.404 112.853L12.3249 112.274L11.995 112.32L11.21 111.694L9.8907 110.444L8.57137 109.331L9.36957 108.12L10.1414 107.679L11.3222 108.903L11.7773 109.562L12.747 110.384L13.7959 111.444L14.4226 110.371L14.8118 109.713L15.1944 108.989L15.5836 107.804V107.442L17.5626 107.159L18.1497 107.817L18.8093 108.476L19.7329 109.305L20.9269 110.417L21.89 108.956L22.2858 108.699L22.0483 108.436L22.9916 106.797L23.5721 105.724L24.7265 106.231L25.5313 107.166L24.3175 108.64L23.8096 109.588L23.2687 110.174L22.9916 110.799L22.2462 112.03L22.0153 112.563L20.32 112.787L19.4426 111.971V111.451L19.0732 111.569L18.2684 110.793L17.8001 110.358L17.0019 109.417L15.953 111.299V111.596L15.0493 113.202L14.9173 113.564L13.3803 113.741ZM22.8201 132.903L21.3095 133.351L20.6498 133.298L20.5443 133.706L20.1155 133.95L18.4135 134.549L18.2288 134.621L19.0996 134.97L19.2249 135.042L20.9401 135.556L20.9862 136.142L20.5641 137.017L20.0099 137.432L17.7011 136.293L15.6034 135.602L14.9437 134.154L16.1443 131.652L16.5863 130.533L16.7182 130.138L16.9359 129.612L17.7473 129.816L18.8423 130.362L18.275 131.396L17.9518 131.501L18.0573 131.823L17.7473 132.311L17.4504 132.89L17.8067 132.745L18.9281 132.337L19.9638 131.916L21.1182 131.349L22.7212 130.691L23.8162 130.29L28.0314 128.552L28.4536 128.697L28.8626 128.144L29.9643 127.571L30.5052 128.078L30.7756 128.789L31.0065 129.763L29.4233 130.356L27.7676 130.862L27.3586 130.764L27.4377 131.02L24.6144 132.12L22.8201 132.903ZM39.5624 147.904L36.7984 149.978H36.2706L36.4355 150.274L34.8128 151.4L34.6281 151.531L34.6677 151.617L34.8062 153.592L35.0107 154.197L35.1294 155.066L34.5621 155.29L33.7837 155.369L33.2296 155.349L32.9525 154.941L32.9855 154.046L32.9327 152.848L32.7282 153.032L29.1595 155.79L28.8626 156.034L28.104 156.777L27.3652 156.119L26.633 154.895L27.5433 154.27H27.9523L28.3217 153.828L30.7888 152.058L31.719 151.4L32.6953 150.61L32.5633 149.53L32.405 148.727L32.5369 148.49L32.3258 148.358L32.2005 147.365L33.9354 146.989L34.3312 147.365V148.418V149.346L38.3288 146.292L38.9489 145.693L39.6943 145.192L40.4529 145.798L40.6706 146.193L41.1917 146.924L39.5624 147.904ZM58.3891 164.42L57.6503 164.9L57.4788 165.446L57.2083 165.802L56.8521 166.263L52.9667 171.061L52.4522 171.147L52.5841 171.562L51.3307 173.141L50.7107 174.056L50.0906 174.965L49.7542 175.103L49.708 175.208V175.564L49.5892 175.755L48.8372 176.762L48.0324 176.222L47.3068 175.807L47.7554 173.576L48.105 171.068V171.035L47.4453 171.265L46.0798 171.858L45.7434 171.739L45.651 172.154L43.5335 172.983L42.7881 172.154L42.4715 171.568L44.6286 169.04L45.1563 168.797V168.409L49.4243 162.59L50.3808 161.537L51.0405 160.464L51.4429 159.865L52.1685 158.64L53.6791 159.733L53.8968 160.325L53.3625 161.128L52.3598 162.208L50.8888 164.104L50.427 164.262L50.4864 164.591L49.9257 165.46L46.8121 169.231L46.3767 169.949L46.7527 169.784L47.3596 169.626L47.4981 169.449L48.0588 169.205L48.7976 168.757L49.5365 169.126L50.0048 169.514L49.7871 170.673L49.7476 170.87L49.6486 171.252L49.4639 172.266L50.3808 171.107V171.074L52.2741 168.626L52.6303 168.422L54.4575 165.789L56.4365 163.156L57.0302 162.392L58.7256 163.643L58.3891 164.42ZM77.5722 175.61L77.3413 176.005L76.7674 177.486L76.0549 179.184L75.7713 179.915L75.4085 180.52L74.9665 181.962L72.9875 186.859L72.7236 187.84L72.3806 188.834L71.1338 188.445L70.4742 188.215L70.052 186.563L69.6298 184.621L69.3396 180.606L69.4781 180.323L69.1614 179.579L69.9398 175.353L70.8172 172.496L70.9557 172.259L71.1866 171.002L72.9941 171.436L73.4493 171.805L72.3806 174.543L72.0442 175.472L71.2262 178.309L71.2724 180.106V181.021L71.3251 182.12L71.1602 182.423L71.3977 182.752L71.7341 184.851L72.1035 183.772L72.9809 182.021L73.8517 179.783L74.9203 176.683L75.0588 176.261L75.3821 175.998L75.2369 175.629L75.5998 174.688L76.2594 172.753L77.8228 173.194L78.4429 173.648L77.5722 175.61ZM100.951 179.862L100.911 180.303L100.865 180.889L100.205 187.017L99.816 187.373L100.152 187.649L99.9611 189.657V190.756V191.855L99.7566 192.151V192.27L99.9347 192.573V192.803L99.8556 194.054H98.8859L98.0481 194.093L97.2103 191.974L96.1417 189.683L95.7129 190.229L94.8883 191.467L94.5387 191.552L94.6838 191.947L93.3645 193.79L92.2826 193.494L91.7021 193.178L92.1375 189.887L92.4542 189.4L92.2563 189.064L92.685 181.856L92.9159 180.461L92.8631 179.217V178.499V177.078L94.7234 177.143L95.2379 177.525V178.493L94.9609 179.954L94.7564 182.344L94.4529 182.725L94.6772 182.969V184.002L94.1033 188.86V189.696L94.3342 189.354L94.7564 188.9V188.676L95.0928 188.162L95.4754 187.386L96.2934 187.294L96.9003 187.366L97.3489 188.465L97.4214 188.65L97.5468 189.025L97.9426 189.979L98.1141 188.485L98.3779 185.398L98.5626 185.036L98.6748 181.85L98.9123 178.559L98.9914 177.598L101.102 177.729L101.208 178.598L100.845 179.395L100.951 179.862ZM76.9455 169.567L81.4114 148.635L149.7 105.935C150.593 105.356 151.251 104.479 151.553 103.46C151.67 103.022 151.697 102.565 151.632 102.116C151.567 101.667 151.412 101.236 151.176 100.849C150.94 100.462 150.628 100.126 150.259 99.8619C149.889 99.5979 149.47 99.4112 149.027 99.3128L132.977 95.5411C127.977 94.4813 125.721 95.3568 123.669 96.6996L88.2521 116.513L91.1216 103.045L155.109 62.2735C156.004 61.6978 156.66 60.8188 156.956 59.7985C157.074 59.3608 157.101 58.9039 157.037 58.4553C156.973 58.0067 156.819 57.5756 156.583 57.1882C156.348 56.8007 156.036 56.4648 155.667 56.2007C155.298 55.9366 154.879 55.7498 154.436 55.6516L138.38 51.893C133.373 50.8266 131.124 51.7087 129.072 53.0449L98.0679 70.541L108.029 23.6346C108.063 23.4716 108.087 23.3068 108.101 23.1409C119.009 23.7774 129.649 26.7572 139.296 31.8767C148.942 36.9962 157.366 44.1345 163.992 52.8033C170.618 61.472 175.289 71.4667 177.686 82.1034C180.083 92.7402 180.149 103.768 177.88 114.433C175.61 125.097 171.059 135.147 164.538 143.894C158.016 152.641 149.678 159.879 140.093 165.113C130.509 170.348 119.905 173.454 109.006 174.22C98.1069 174.987 87.1708 173.395 76.9455 169.554V169.567ZM122.977 189.058L122.403 189.163L122.462 189.492L121.882 190.308L120.708 191.717L119.645 193.106L118.392 192.382L117.904 191.605L119.065 190.361L119.725 189.874L120.496 188.867L121.499 187.767L120.391 187.195L119.731 186.846L118.979 186.504L117.779 186.181H117.416L117.027 184.206L117.686 183.581L118.346 182.87L119.124 181.903L120.173 180.658L118.656 179.776L118.379 179.395L118.128 179.645L116.44 178.796L115.338 178.276L115.78 177.097L116.67 176.248L118.207 177.374L119.184 177.828L119.804 178.328L120.463 178.578L121.737 179.237L122.179 179.408L122.489 181.08L121.723 182.001H121.209L121.341 182.363L120.609 183.206L120.2 183.693L119.309 184.549L121.242 185.483H121.539L123.201 186.293L123.564 186.405L123.854 187.925L122.977 189.058ZM143.426 185.582L142.061 186.102L141.487 184.562L141.355 184.009L140.201 181.304L139.792 180.237L139.343 179.474L139.073 178.987V178.473L138.782 178.434L136.21 172.773L136.032 172.49L135.814 172.121L135.491 171.351L136.262 170.66L136.698 170.489L137.648 170.081L138.189 172.055L138.129 172.575L138.532 172.806L138.868 173.543L140.603 177.361L140.834 178.019L141.282 179.171L141.658 179.618L143.578 183.673V184.114H143.809L144.376 185.088L143.426 185.582ZM166.924 170.443L166.35 171.055L164.272 170.12L161.903 169.172H161.864L161.943 169.863L162.214 171.325L162.022 171.627L162.405 171.805L162.741 174.05L161.765 174.596L161.105 174.774L159.126 172.108L159.008 171.535L158.632 171.436L153.902 165.973L153.09 164.808L152.187 163.959L151.692 163.432L150.689 162.425L152.075 161.174L152.701 161.089L153.361 161.793L154.185 163.037L155.709 164.894L155.755 165.374H156.092L156.818 166.118L159.806 169.995L160.399 170.581L160.333 170.173V169.547L160.188 169.376L160.07 168.777L159.799 167.954L160.327 167.296L160.808 166.934L161.897 167.401L162.082 167.487L162.431 167.665L163.381 168.073L162.458 166.888L160.479 164.492L160.36 164.097L158.209 161.741L156.079 159.219L155.465 158.476L157.068 157.107L157.728 157.646L158.031 158.476L158.533 158.759L158.816 159.108L159.186 159.562L163.005 164.406L162.972 164.933L163.408 164.894L164.674 166.467L165.42 167.276L166.172 168.079L166.231 168.435L166.323 168.507L166.666 168.606L166.825 168.764L167.643 169.718L166.924 170.443ZM183.019 152.143L182.61 152.657L181.792 152.058L180.519 151.176L180.335 150.939L179.945 150.669L180.328 152.44L180.123 152.815L180.493 153.42L180.882 155.138L179.695 155.468H178.89L178.712 153.71L178.613 153.052L178.283 150.853V150.886L178.098 149.339L178.006 149.273L177.808 149.089L176.423 148.207L176.654 149.728L176.555 150.458L176.779 150.722L177.036 152.038L177.208 152.894L175.229 153.058L175.057 151.202L174.985 150.603L174.8 148.352L174.661 147.924L174.582 146.937L173.025 145.831L172.095 145.245L170.473 144.389L169.12 143.501L169.78 142.145L170.506 141.486L171.825 142.507L172.26 143.06L172.748 143.343L173.197 143.566L175.249 145.015L175.75 145.396L175.809 145.706L176.541 145.831L177.96 146.792L180.453 148.516L180.605 149.089L181.377 149.155L182.327 149.682L182.986 150.063L183.883 150.662L183.019 152.143ZM193.323 132.311L192.723 133.627L191.226 132.969L190.737 132.666L188.006 131.56L186.964 131.099L186.107 130.869L185.566 130.718L185.196 130.362L184.965 130.533L179.141 128.341L178.811 128.262L178.395 128.157L177.623 127.841L177.676 126.808L177.867 126.373L178.25 125.419L180.011 126.419L180.335 126.827L180.79 126.709L181.548 126.992L185.506 128.473L186.133 128.782L187.268 129.283L187.848 129.335L192.077 130.856L192.393 131.165L192.565 131.02L193.66 131.31L193.323 132.311ZM198.752 110.503L196.859 111.74L194.946 113.491L194.319 113.215L193.693 112.458L193.534 111.879L194.959 110.944L195.065 110.819L195.771 110.253H195.573L193.818 110.128L193.429 110.016L193.224 109.654L192.604 109.871H191.028L189.088 109.588L186.074 109.265V108.996L185.704 109.2L183.969 109.147L182.294 108.989L182.254 107.988L182.327 107.231L182.716 106.573L183.93 106.837L184.471 107.264L184.84 107.014L189.365 107.587L190.526 107.686L192.248 107.89L193.508 108.133L194.623 108.271L195.81 108.37L196.147 108.41L198.238 108.528L198.851 108.653L198.752 110.503Z" fill="#03B081"/>
</svg>
