<svg width="33" height="32" viewBox="0 0 33 32" fill="none" xmlns="http://www.w3.org/2000/svg">
<defs>
<clipPath id="clip0">
<rect width="32.0385" height="32" fill="white"/>
</clipPath>
</defs>
<g clip-path="url(#clip0)">
<path d="M14.032 0.0848045C7.12068 1.02258 1.55826 6.22531 0.286478 12.9439C-0.50999 17.1832 0.363555 21.4353 2.7915 25.0708C3.63935 26.3297 5.75898 28.4622 6.97937 29.2715C8.84208 30.4919 10.7433 31.2883 12.94 31.7636C14.4559 32.0848 17.5904 32.0848 19.1062 31.7636C22.2407 31.0956 24.7714 29.7853 27.0067 27.6785C29.3704 25.4304 30.9376 22.707 31.6313 19.6368C32.8389 14.3184 31.3615 8.91018 27.6233 4.94069C25.4266 2.62836 22.2407 0.868425 19.0805 0.26465C17.7574 0.00772667 15.2267 -0.0821991 14.032 0.0848045ZM17.6289 1.35658C21.4442 1.79335 25.054 3.74599 27.4049 6.64924C28.9208 8.53763 29.7943 10.2847 30.3724 12.6613C30.655 13.7917 30.7064 14.3056 30.7192 15.8728C30.7192 18.1081 30.488 19.4826 29.7558 21.3325C25.889 31.2626 13.107 33.9475 5.61767 26.4068C1.39125 22.1675 0.145169 16.0013 2.39326 10.4389C3.53658 7.57417 5.92598 4.81222 8.57231 3.30921C11.4627 1.65205 14.4687 1.00973 17.6289 1.35658Z" fill="black"/>
<circle r="15" transform="matrix(1 0 0 -1 16 16)" fill="black"/>
<path d="M5.65627 12.2244C3.98626 12.8282 2.92002 14.8964 3.30541 16.8234C3.4981 17.7868 3.71649 18.2365 4.32026 18.8659C5.11673 19.7266 5.63058 19.9193 7.03082 19.9193C8.14844 19.9193 8.31544 19.8808 8.93206 19.5468C10.0754 18.9045 10.7048 17.8896 10.8462 16.4508C11.026 14.4725 9.88268 12.6226 8.19982 12.1473C7.54467 11.9675 6.28574 12.006 5.65627 12.2244ZM8.4696 13.8302C9.22752 14.3826 9.61291 15.6544 9.34314 16.772C8.82929 18.9302 5.99027 19.3541 5.01396 17.4143C4.42303 16.2581 4.73134 14.4468 5.63058 13.8173C6.37566 13.2778 7.69882 13.2907 8.4696 13.8302Z" fill="white"/>
<path d="M23.0373 12.2759C20.6222 13.2394 19.9414 16.7978 21.7655 18.9559C22.7547 20.1378 25.0927 20.3562 26.1333 19.3542L26.4159 19.0844L26.4544 19.4441C26.493 19.7652 26.5315 19.7909 27.1353 19.7909H27.7776L27.8161 17.7612L27.8547 15.7444H26.0433H24.2449V16.3867V17.029H25.3368C26.5186 17.029 26.5572 17.0547 26.2232 17.7484C25.9919 18.2237 25.1698 18.699 24.5532 18.699C23.0758 18.699 22.1895 17.6585 22.1895 15.9756C22.2023 14.1129 23.397 13.0467 25.0285 13.4321C25.6579 13.5862 26.3003 14.1386 26.3003 14.5368C26.3003 14.6653 26.493 14.7167 27.071 14.7167H27.829L27.6491 14.1386C27.2509 12.7897 26.2617 12.1089 24.6302 12.0575C23.9109 12.0318 23.5126 12.0832 23.0373 12.2759Z" fill="white"/>
<path d="M11.9126 16.0013V19.8552H12.5549H13.1972L13.2229 17.2603L13.2615 14.6525L14.2121 17.2603L15.1627 19.868L15.805 19.8295L16.4473 19.791L17.3851 17.2217L18.3229 14.6525L18.3614 17.2217L18.3999 19.791L19.0808 19.8295L19.7488 19.868L19.7231 16.0399L19.6846 12.2117H18.7982H17.8989L16.8712 15.0635C16.306 16.6436 15.805 17.8897 15.7665 17.8255C15.7151 17.7741 15.2526 16.5537 14.7388 15.1021C14.2249 13.6505 13.7368 12.3915 13.6725 12.3016C13.5955 12.2117 13.2358 12.1474 12.7348 12.1474H11.9126V16.0013Z" fill="white"/>
</g>
</svg>
