<svg fill="none" height="32" viewBox="0 0 32 32" width="32" xmlns="http://www.w3.org/2000/svg" xmlns:xlink="http://www.w3.org/1999/xlink"><linearGradient id="a" gradientUnits="userSpaceOnUse" x1="16.0005" x2="16.0005" y1="-.000093" y2="8.46647"><stop offset="0" stop-color="#090220"/><stop offset="1" stop-color="#170659"/></linearGradient><path d="m15.9983 31.9965c8.8356 0 15.9982-7.1626 15.9982-15.9982 0-8.83563-7.1626-15.9983-15.9982-15.9983-8.83563 0-15.9983 7.16267-15.9983 15.9983 0 8.8356 7.16267 15.9982 15.9983 15.9982z" fill="url(#a)"/><path d="m10.7283 12.0208c-.1278-.1588-.3219-.2469-.5291-.2469h-4.27298c-.03528 0-.06614-.0133-.0926-.0353-.02205-.0221-.03528-.0485-.03528-.0794v-2.87951c0-.03087.01323-.05732.03528-.07937.02646-.02646.05732-.03969.0926-.03528h4.51548c1.1377 0 2.1211.46742 2.9501 1.39786l1.098 1.3405-2.1387 2.6062zm7.8934-1.9711c.8246-.92165 1.8123-1.38466 2.9633-1.38466h4.5022c.0309-.00441.0618.00882.0838.02646.0221.02205.0309.05291.0265.08819v2.87951c0 .0309-.0089.0573-.0265.0794-.022.0264-.0529.0397-.0838.0353h-4.2729c-.2029-.0045-.3969.0881-.5292.2469l-3.1485 3.832 3.1617 3.8585c.1279.1455.3175.2337.5115.2293h4.273c.0309-.0045.0662.0132.0838.0352.0176.0265.0309.0618.0265.0926v2.8795c0 .0309-.0089.0574-.0265.0794-.022.0265-.0529.0397-.0838.0353h-4.4978c-1.151 0-2.1299-.4674-2.9501-1.3979l-2.6194-3.197-2.6193 3.197c-.8246.9305-1.8124 1.3979-2.9633 1.3979h-4.50668c-.03087.0044-.06614-.0132-.08378-.0353-.02205-.0264-.03087-.0617-.02646-.0926v-2.8795c0-.0309.00882-.0573.02646-.0794.02204-.0264.05291-.0397.08378-.0352h4.27298c.2028 0 .3969-.0926.5291-.247l3.0912-3.7747z" fill="#00d1ff"/></svg>