<svg width="32" height="32" viewBox="0 0 32 32" fill="none" xmlns="http://www.w3.org/2000/svg">
<path d="M31.5211 19.8706C29.3839 28.442 20.7014 33.6585 12.128 31.521C3.55811 29.384 -1.65895 20.7021 0.479281 12.1312C2.61551 3.55876 11.2979 -1.65819 19.8688 0.478793C28.4418 2.61577 33.6583 11.2987 31.5211 19.8706Z" fill="#31B95B"/>
<path d="M22 19.8631C22 21.185 21.5723 22.3514 20.7169 23.2846C19.8616 24.2566 18.734 24.8398 17.3343 25.0731V27.367C17.3343 27.4837 17.2954 27.6003 17.2177 27.6781C17.1399 27.7558 17.0233 27.7947 16.9066 27.7947H15.157C15.0404 27.7947 14.9626 27.7558 14.846 27.6781C14.7682 27.6003 14.7293 27.4837 14.7293 27.367V25.0731C14.1461 24.9953 13.6018 24.8787 13.0575 24.6843C12.5131 24.4899 12.0855 24.2955 11.7355 24.1011C11.3856 23.9067 11.0746 23.7123 10.7635 23.479C10.4525 23.2457 10.2581 23.0902 10.1414 22.9735C10.0248 22.8569 9.94704 22.7791 9.90816 22.7402C9.75263 22.5458 9.75264 22.3903 9.86928 22.1959L11.1912 20.4463C11.269 20.3685 11.3467 20.2908 11.5023 20.2908C11.6189 20.2908 11.7355 20.3297 11.8133 20.4074L11.8522 20.4463C12.8242 21.3017 13.874 21.846 15.0015 22.0793C15.3125 22.157 15.6625 22.1959 15.9735 22.1959C16.6734 22.1959 17.2954 22.0015 17.8398 21.6516C18.3841 21.3017 18.6563 20.7573 18.6563 20.0575C18.6563 19.8242 18.5785 19.5909 18.4619 19.3576C18.3452 19.1244 18.1897 18.9688 18.0342 18.8133C17.8787 18.6578 17.6065 18.5023 17.2566 18.3079C16.9066 18.1135 16.6345 17.9968 16.4012 17.8802C16.1679 17.7635 15.818 17.6469 15.3514 17.4525C15.0015 17.297 14.7293 17.2192 14.5349 17.1415C14.3405 17.0637 14.0684 16.9471 13.7184 16.7915C13.3685 16.636 13.0964 16.5194 12.902 16.4027C12.7075 16.2861 12.4354 16.1306 12.1632 15.9362C11.8911 15.7418 11.6578 15.5474 11.4634 15.3918C11.269 15.1974 11.1135 15.003 10.8802 14.7697C10.6858 14.5365 10.5302 14.2643 10.4136 14.031C10.297 13.7977 10.2192 13.4867 10.1414 13.1757C10.0637 12.8646 10.0248 12.5147 10.0248 12.1648C10.0248 10.9595 10.4525 9.90969 11.3079 9.01544C12.1632 8.12119 13.2519 7.53798 14.6127 7.26582V4.93299C14.6127 4.81635 14.6516 4.73859 14.7293 4.62195C14.8071 4.54419 14.9237 4.50531 15.0404 4.50531H16.79C16.9066 4.50531 17.0233 4.54419 17.101 4.62195C17.1788 4.69971 17.2177 4.81635 17.2177 4.93299V7.14918C17.7231 7.18806 18.1897 7.3047 18.6563 7.46022C19.1228 7.61575 19.5116 7.77127 19.7838 7.88791C20.056 8.04343 20.367 8.19895 20.6003 8.39336C20.8724 8.58776 21.028 8.7044 21.1057 8.78216C21.1835 8.85992 21.2612 8.8988 21.3001 8.97656C21.4557 9.13208 21.4557 9.28761 21.3779 9.48201L20.3281 11.3872C20.2504 11.5038 20.1726 11.5816 20.0171 11.5816C19.9004 11.6204 19.7838 11.5816 19.6672 11.5038C19.6283 11.4649 19.5894 11.426 19.4727 11.3483C19.3561 11.2705 19.2006 11.1539 18.9673 10.9983C18.734 10.8428 18.4619 10.7262 18.1897 10.5707C17.9175 10.454 17.6065 10.3374 17.2177 10.2207C16.8289 10.1041 16.479 10.0652 16.0901 10.0652C15.2737 10.0652 14.5738 10.2596 14.0684 10.6095C13.5629 10.9595 13.2908 11.4649 13.2908 12.0481C13.2908 12.2814 13.3296 12.4758 13.4074 12.6702C13.4852 12.8646 13.6018 13.059 13.7962 13.2145C13.9906 13.3701 14.1461 13.5256 14.3016 13.6422C14.4572 13.7589 14.6905 13.8755 15.0404 14.031C15.3514 14.1865 15.6236 14.3032 15.818 14.3809C16.0124 14.4587 16.3234 14.5753 16.7122 14.7309C17.1788 14.8864 17.5287 15.0419 17.762 15.1586C17.9953 15.2752 18.3452 15.3918 18.734 15.6251C19.1617 15.8195 19.4727 16.0139 19.706 16.1694C19.9393 16.325 20.2115 16.5583 20.5225 16.8304C20.8336 17.1026 21.0668 17.3747 21.2224 17.6469C21.3779 17.9191 21.5334 18.269 21.6501 18.6578C21.9611 19.0077 22 19.4354 22 19.8631Z" fill="white"/>
</svg>
