<svg width="32" height="32" viewBox="0 0 32 32" fill="none" xmlns="http://www.w3.org/2000/svg">
<circle cx="16" cy="16" r="16" fill="#50AF95"/>
<path fill-rule="evenodd" clip-rule="evenodd" d="M17.2295 17.1384C17.1329 17.1463 16.6338 17.1786 15.5205 17.1786C14.6351 17.1786 14.0064 17.1497 13.7858 17.1384C10.3639 16.975 7.80979 16.3283 7.80979 15.554C7.80979 14.7797 10.3639 14.1339 13.7858 13.9679V16.4943C14.0096 16.5118 14.6504 16.5529 15.5358 16.5529C16.5984 16.5529 17.1305 16.5048 17.2262 16.4952V13.9696C20.6409 14.1348 23.1894 14.7815 23.1894 15.554C23.1894 16.3265 20.6417 16.9732 17.2262 17.1375L17.2295 17.1384ZM17.2295 13.7083V11.4475H21.9948V8H9.02046V11.4475H13.785V13.7074C9.91235 13.9006 7 14.7334 7 15.7314C7 16.7294 9.91235 17.5614 13.785 17.7554V25H17.2287V17.7527C21.0925 17.5596 24 16.7277 24 15.7305C24 14.7334 21.0949 13.9015 17.2287 13.7074L17.2295 13.7083Z" fill="white"/>
</svg>
