<svg width="32" height="32" viewBox="0 0 32 32" fill="none" xmlns="http://www.w3.org/2000/svg">
<g clip-path="url(#clip0_949_774)">
<path d="M16 32C24.8366 32 32 24.8366 32 16C32 7.16344 24.8366 0 16 0C7.16344 0 0 7.16344 0 16C0 24.8366 7.16344 32 16 32Z" fill="#08090B"/>
<path d="M11 8L8 22.5H11.5L12.5 18.5L13 22.5H16.5L17.5 19L18.5 22.5H22L24 13.5L21 12L20 15L19.5 11.5L16 10L15 13.5L14.5 9.5L11 8Z" fill="white"/>
</g>
<defs>
<clipPath id="clip0_949_774">
<rect width="32" height="32" fill="white"/>
</clipPath>
</defs>
</svg>
