<?xml version="1.0" encoding="utf-8"?>
<!-- Generator: Adobe Illustrator 25.4.1, SVG Export Plug-In . SVG Version: 6.00 Build 0)  -->
<svg version="1.0" id="Layer_1" xmlns="http://www.w3.org/2000/svg" xmlns:xlink="http://www.w3.org/1999/xlink" x="0px" y="0px"
	 viewBox="0 0 185.534 29.666" enable-background="new 0 0 185.534 29.666" xml:space="preserve">
<path fill="#5741D9" d="M17.814,0.675C7.975,0.675,0,8.655,0,18.497v7.638c0,1.405,1.138,2.543,2.543,2.543
	c1.405,0,2.551-1.138,2.551-2.543v-7.638c0-1.409,1.134-2.547,2.543-2.547c1.405,0,2.543,1.138,2.543,2.547v7.638
	c0,1.405,1.138,2.543,2.543,2.543c1.409,0,2.547-1.138,2.547-2.543v-7.638c0-1.409,1.138-2.547,2.543-2.547
	c1.409,0,2.551,1.138,2.551,2.547v7.638c0,1.405,1.138,2.543,2.543,2.543c1.405,0,2.543-1.138,2.543-2.543v-7.638
	c0-1.409,1.138-2.547,2.551-2.547c1.405,0,2.543,1.138,2.543,2.547v7.638c0,1.405,1.138,2.543,2.547,2.543
	c1.405,0,2.543-1.138,2.543-2.543v-7.638C35.636,8.655,27.657,0.675,17.814,0.675z"/>
<path fill="#5741D9" d="M39.636,0.678h4.521v11.89l12.066-11.89h6.012L51.476,11.086l11.362,17.584h-6.012l-8.804-14.243
	l-3.864,3.739v10.508h-4.521V0.678z"/>
<path fill="#5741D9" d="M65.296,0.678h4.471v4.835c0.364-0.942,1.264-2.085,2.692-3.437c1.428-1.348,3.077-2.026,4.94-2.026
	c0.088,0,0.234,0.008,0.444,0.025c0.209,0.017,0.565,0.05,1.072,0.105v4.969c-0.281-0.054-0.536-0.088-0.77-0.105
	C77.91,5.028,77.65,5.02,77.374,5.02c-2.37,0-4.191,0.762-5.464,2.286s-1.909,3.278-1.909,5.267v16.101h-4.706V0.678z"/>
<path fill="#5741D9" d="M96.44,11.731c1.08-0.138,1.804-0.59,2.169-1.357c0.209-0.419,0.314-1.021,0.314-1.809
	c0-1.608-0.569-2.776-1.708-3.504c-1.139-0.724-2.767-1.089-4.89-1.089c-2.453,0-4.191,0.666-5.216,1.997
	c-0.574,0.737-0.946,1.83-1.122,3.282h-4.392c0.088-3.458,1.206-5.865,3.354-7.222C87.099,0.678,89.59,0,92.429,0
	c3.291,0,5.962,0.628,8.013,1.88c2.039,1.256,3.056,3.207,3.056,5.857v16.127c0,0.49,0.101,0.879,0.302,1.177
	c0.196,0.297,0.619,0.444,1.268,0.444c0.21,0,0.444-0.012,0.708-0.038c0.259-0.025,0.54-0.067,0.837-0.117v3.475
	c-0.733,0.209-1.289,0.339-1.67,0.393c-0.386,0.05-0.905,0.08-1.57,0.08c-1.621,0-2.797-0.574-3.53-1.725
	c-0.381-0.611-0.653-1.474-0.808-2.587c-0.959,1.256-2.332,2.344-4.128,3.265c-1.796,0.925-3.772,1.386-5.932,1.386
	c-2.596,0-4.718-0.787-6.363-2.361c-1.645-1.574-2.47-3.546-2.47-5.911c0-2.591,0.812-4.601,2.432-6.029s3.747-2.307,6.376-2.638
	L96.44,11.731z M86.534,24.441c0.992,0.783,2.169,1.172,3.529,1.172c1.654,0,3.257-0.381,4.81-1.147
	c2.612-1.268,3.919-3.349,3.919-6.238v-3.785c-0.574,0.368-1.315,0.674-2.219,0.917c-0.904,0.243-1.792,0.419-2.658,0.523
	l-2.843,0.364c-1.704,0.226-2.985,0.582-3.843,1.068c-1.457,0.816-2.181,2.123-2.181,3.91
	C85.044,22.591,85.542,23.658,86.534,24.441z"/>
<path fill="#5741D9" d="M114.195,0.678v11.89l12.066-11.89h6.007l-10.759,10.408l11.362,17.583h-6.012l-8.804-14.243l-3.864,3.739
	v10.508h-4.522V0.678H114.195z"/>
<path fill="#5741D9" d="M152.062,1.449c1.855,0.934,3.266,2.139,4.233,3.621c0.934,1.411,1.557,3.056,1.871,4.94
	c0.277,1.29,0.415,3.345,0.415,6.167h-20.359c0.088,2.847,0.753,5.133,1.997,6.853c1.243,1.721,3.173,2.583,5.781,2.583
	c2.437,0,4.384-0.812,5.836-2.441c0.813-0.946,1.39-2.039,1.729-3.282h4.627c-0.122,1.03-0.528,2.173-1.215,3.437
	c-0.686,1.264-1.456,2.294-2.302,3.098c-1.419,1.394-3.174,2.336-5.267,2.822c-1.122,0.28-2.395,0.419-3.814,0.419
	c-3.462,0-6.397-1.269-8.804-3.801c-2.407-2.537-3.609-6.083-3.609-10.651c0-4.496,1.21-8.147,3.638-10.952
	c2.424-2.805,5.593-4.207,9.508-4.207C148.294,0.05,150.208,0.519,152.062,1.449z M153.745,12.442
	c-0.188-2.039-0.632-3.667-1.323-4.886c-1.276-2.265-3.412-3.399-6.401-3.399c-2.143,0-3.939,0.779-5.388,2.34
	c-1.453,1.562-2.219,3.542-2.307,5.945H153.745z"/>
<path fill="#5741D9" d="M167.184,0.678v3.973c1.323-1.637,2.726-2.813,4.208-3.529c1.482-0.716,3.127-1.072,4.94-1.072
	c3.973,0,6.657,1.386,8.051,4.157c0.766,1.516,1.151,3.684,1.151,6.51v17.956h-4.785V11.032c0-1.708-0.251-3.085-0.758-4.128
	c-0.837-1.742-2.353-2.612-4.547-2.612c-1.113,0-2.03,0.113-2.746,0.339c-1.29,0.385-2.42,1.151-3.4,2.298
	c-0.782,0.925-1.293,1.876-1.528,2.864c-0.234,0.988-0.351,2.391-0.351,4.22v14.661h-4.706V0.678H167.184z"/>
</svg>
