<svg width="86" height="26" viewBox="0 0 86 26" fill="none" xmlns="http://www.w3.org/2000/svg">
<path d="M19.7104 8.61754H13.9747C13.9747 7.67622 13.864 7.04468 13.6437 6.72291C13.3023 6.24735 12.3604 6.00902 10.8187 6.00902C9.32108 6.00902 8.3285 6.14591 7.84421 6.42023C7.35991 6.69564 7.11722 7.29392 7.11722 8.21505C7.11722 9.04893 7.3321 9.59867 7.7624 9.86154C8.07054 10.0486 8.47793 10.1582 8.98513 10.1909L10.1419 10.2727C12.6211 10.4369 14.1694 10.5531 14.7868 10.6191C16.7474 10.8165 18.1687 11.3379 19.0505 12.1826C19.7443 12.842 20.1582 13.7037 20.2902 14.7672C20.3676 15.4036 20.4058 16.1241 20.4058 16.9241C20.4058 18.7686 20.2296 20.1189 19.8779 20.9746C19.2392 22.5453 17.8044 23.5373 15.5721 23.954C14.6368 24.1301 13.2063 24.2179 11.2817 24.2179C8.06944 24.2179 5.83123 24.0271 4.56706 23.6426C3.01601 23.1719 1.99289 22.2181 1.49824 20.7821C1.22228 19.9826 1.08594 18.6508 1.08594 16.7867H6.82163C6.82163 16.9945 6.82218 17.1537 6.82218 17.2633C6.82218 18.2581 7.10795 18.8973 7.67896 19.1825C8.07435 19.3788 8.55155 19.4819 9.11274 19.4945H11.2217C12.2977 19.4945 12.9844 19.4394 13.2805 19.3287C13.8079 19.1214 14.1542 18.7877 14.3194 18.3257C14.4072 18.041 14.4509 17.6735 14.4509 17.223C14.4509 16.2146 14.0827 15.601 13.3476 15.3807C13.0722 15.294 11.7938 15.1724 9.51087 15.0191C7.67732 14.8882 6.40387 14.7623 5.69107 14.6401C3.81335 14.2889 2.56172 13.5663 1.93727 12.4695C1.38807 11.538 1.11375 10.1282 1.11375 8.24178C1.11375 6.80581 1.26209 5.65398 1.55878 4.78793C1.85546 3.92133 2.33375 3.26361 2.99365 2.81367C3.9606 2.12269 5.19805 1.71747 6.70383 1.5964C7.9571 1.48678 9.34725 1.43115 10.8765 1.43115C13.2838 1.43115 14.9995 1.56968 16.0221 1.844C18.5183 2.51481 19.7661 4.39308 19.7661 7.47989C19.7661 7.73294 19.7475 8.11143 19.7104 8.61754Z" fill="#10298E"/>
<path d="M44.9332 24.2184V1.31055H53.9193H55.3297H56.4199C57.9955 1.31055 59.1975 1.43871 60.0237 1.69613C61.9129 2.28786 63.1803 3.50022 63.8299 5.33159C64.1647 6.29308 64.3327 7.7405 64.3327 9.6733C64.3327 11.9971 64.1467 13.6665 63.7786 14.6837C63.0418 16.6939 61.5257 17.8523 59.2356 18.1522C58.9662 18.1975 57.8204 18.2373 55.7976 18.27L54.7745 18.3038H51.0987V24.2184H44.9332ZM51.0987 12.9897H54.9419C56.1608 12.9461 56.902 12.8523 57.1687 12.7056C57.533 12.5054 57.7779 12.104 57.8995 11.5025C57.9775 11.1022 58.0162 10.5066 58.0162 9.71584C58.0162 8.74671 57.9387 8.02846 57.7833 7.55944C57.5619 6.90226 57.0307 6.5025 56.1897 6.35689C56.0229 6.33507 55.6247 6.32307 54.9937 6.32307H51.0987V12.9897Z" fill="#10298E"/>
<path d="M77.4931 20.2595H69.2498L68.1421 24.2184H61.7634L68.6466 1.31055H77.9468L84.914 24.2184H78.6695L77.4931 20.2595ZM76.2687 15.7968L73.3799 5.8666L70.5767 15.7968H76.2687Z" fill="#10298E"/>
<path d="M36.4235 4.53335C38.9661 4.53335 41.2359 5.70481 42.7275 7.53945L44.0566 4.68987C41.9782 2.72543 39.1493 1.51416 36.0292 1.51416C31.1711 1.51416 27.0153 4.44827 25.3099 8.60183H22.7183L21.188 11.8823H24.5219C24.4968 12.1866 24.4804 12.4909 24.4804 12.8018C24.4804 13.1775 24.5 13.5495 24.5371 13.9165H22.8617L21.332 17.198H25.3895C27.1435 21.2463 31.2474 24.0883 36.0292 24.0883C38.4392 24.0883 40.6753 23.3662 42.5268 22.1325V18.111C41.0358 19.8087 38.8548 20.8815 36.4235 20.8815C33.5816 20.8815 31.0816 19.416 29.626 17.198H38.1218L39.6522 13.9165H28.376C28.3177 13.5216 28.2866 13.1181 28.2866 12.7069C28.2866 12.4287 28.3007 12.1539 28.328 11.8823H40.6006L42.1303 8.60183H29.3888C30.798 6.17001 33.4202 4.53335 36.4235 4.53335Z" fill="#FFBE00"/>
</svg>
